<svg width="92" height="22" viewBox="0 0 92 22" fill="none" xmlns="http://www.w3.org/2000/svg">
<path d="M1.404 13.336C1.188 12.634 1.08 11.896 1.08 9.88C1.08 7.864 1.188 7.126 1.404 6.424C2.016 4.534 3.528 3.562 5.598 3.562C7.74 3.562 9.054 4.642 9.666 5.992C9.72 6.1 9.702 6.19 9.612 6.244L8.532 6.766C8.424 6.82 8.334 6.784 8.28 6.676C7.686 5.578 6.894 5.056 5.598 5.056C4.212 5.056 3.33 5.704 2.952 6.874C2.79 7.324 2.7 8.008 2.7 9.88C2.7 11.752 2.79 12.436 2.952 12.886C3.33 14.056 4.212 14.704 5.598 14.704C6.84 14.704 7.848 14.092 8.226 12.94C8.352 12.526 8.46 11.932 8.46 11.014C8.46 10.942 8.424 10.906 8.352 10.906H5.976C5.868 10.906 5.796 10.834 5.796 10.726V9.682C5.796 9.574 5.868 9.502 5.976 9.502H9.882C9.99 9.502 10.062 9.574 10.062 9.682V10.6C10.062 11.698 9.936 12.706 9.756 13.3C9.162 15.154 7.632 16.198 5.598 16.198C3.528 16.198 2.016 15.226 1.404 13.336ZM15.8425 16.198C14.0965 16.198 12.8545 15.352 12.3865 13.858C12.2065 13.3 12.0985 12.67 12.0985 11.68C12.0985 10.69 12.1885 10.024 12.3685 9.502C12.8545 8.008 14.1145 7.18 15.7525 7.18C17.4085 7.18 18.6505 8.026 19.1365 9.502C19.3165 10.06 19.4065 10.654 19.4065 11.968C19.4065 12.076 19.3345 12.148 19.2085 12.148H13.7545C13.6825 12.148 13.6465 12.184 13.6465 12.256C13.6465 12.724 13.7005 13.012 13.7905 13.3C14.1325 14.29 14.9065 14.794 15.9685 14.794C16.9945 14.794 17.7145 14.38 18.1825 13.84C18.2725 13.75 18.3625 13.732 18.4525 13.804L19.1905 14.47C19.2805 14.542 19.2805 14.632 19.2085 14.722C18.5245 15.586 17.3545 16.198 15.8425 16.198ZM13.7545 10.942H17.7505C17.8225 10.942 17.8585 10.906 17.8585 10.834C17.8585 10.438 17.8225 10.132 17.7325 9.862C17.4445 8.998 16.7245 8.512 15.7525 8.512C14.7805 8.512 14.0605 8.998 13.7725 9.862C13.6825 10.132 13.6465 10.438 13.6465 10.834C13.6465 10.906 13.6825 10.942 13.7545 10.942ZM24.9995 16.09H24.3335C22.6595 16.09 22.0115 15.334 22.0115 13.642V8.71C22.0115 8.638 21.9755 8.602 21.9035 8.602H21.1835C21.0755 8.602 21.0035 8.53 21.0035 8.422V7.558C21.0035 7.45 21.0755 7.378 21.1835 7.378H21.9035C21.9755 7.378 22.0115 7.342 22.0115 7.27V4.84C22.0115 4.732 22.0835 4.66 22.1915 4.66H23.3435C23.4515 4.66 23.5235 4.732 23.5235 4.84V7.27C23.5235 7.342 23.5595 7.378 23.6315 7.378H24.9995C25.1075 7.378 25.1795 7.45 25.1795 7.558V8.422C25.1795 8.53 25.1075 8.602 24.9995 8.602H23.6315C23.5595 8.602 23.5235 8.638 23.5235 8.71V13.588C23.5235 14.452 23.8475 14.686 24.6215 14.686H24.9995C25.1075 14.686 25.1795 14.758 25.1795 14.866V15.91C25.1795 16.018 25.1075 16.09 24.9995 16.09ZM33.219 5.434H31.995C31.887 5.434 31.815 5.362 31.815 5.254V3.94C31.815 3.832 31.887 3.76 31.995 3.76H33.219C33.327 3.76 33.399 3.832 33.399 3.94V5.254C33.399 5.362 33.327 5.434 33.219 5.434ZM33.183 16H32.031C31.923 16 31.851 15.928 31.851 15.82V7.558C31.851 7.45 31.923 7.378 32.031 7.378H33.183C33.291 7.378 33.363 7.45 33.363 7.558V15.82C33.363 15.928 33.291 16 33.183 16ZM43.0658 16H41.9138C41.8058 16 41.7338 15.928 41.7338 15.82V10.78C41.7338 9.394 41.1038 8.584 39.8078 8.584C38.6378 8.584 37.8278 9.412 37.8278 10.69V15.82C37.8278 15.928 37.7558 16 37.6478 16H36.4958C36.3878 16 36.3158 15.928 36.3158 15.82V7.558C36.3158 7.45 36.3878 7.378 36.4958 7.378H37.6478C37.7558 7.378 37.8278 7.45 37.8278 7.558V8.35H37.8458C38.2598 7.684 39.0878 7.18 40.2578 7.18C42.1298 7.18 43.2458 8.458 43.2458 10.42V15.82C43.2458 15.928 43.1738 16 43.0658 16ZM53.5991 16.09H52.9331C51.2591 16.09 50.6111 15.334 50.6111 13.642V8.71C50.6111 8.638 50.5751 8.602 50.5031 8.602H49.7831C49.6751 8.602 49.6031 8.53 49.6031 8.422V7.558C49.6031 7.45 49.6751 7.378 49.7831 7.378H50.5031C50.5751 7.378 50.6111 7.342 50.6111 7.27V4.84C50.6111 4.732 50.6831 4.66 50.7911 4.66H51.9431C52.0511 4.66 52.1231 4.732 52.1231 4.84V7.27C52.1231 7.342 52.1591 7.378 52.2311 7.378H53.5991C53.7071 7.378 53.7791 7.45 53.7791 7.558V8.422C53.7791 8.53 53.7071 8.602 53.5991 8.602H52.2311C52.1591 8.602 52.1231 8.638 52.1231 8.71V13.588C52.1231 14.452 52.4471 14.686 53.2211 14.686H53.5991C53.7071 14.686 53.7791 14.758 53.7791 14.866V15.91C53.7791 16.018 53.7071 16.09 53.5991 16.09ZM59.2944 16.198C57.6204 16.198 56.3604 15.334 55.8924 13.876C55.6944 13.282 55.6044 12.688 55.6044 11.68C55.6044 10.69 55.6944 10.096 55.8924 9.502C56.3604 8.026 57.6204 7.18 59.2944 7.18C60.9684 7.18 62.2284 8.026 62.6964 9.502C62.8944 10.096 62.9844 10.69 62.9844 11.68C62.9844 12.688 62.8944 13.282 62.6964 13.876C62.2284 15.334 60.9684 16.198 59.2944 16.198ZM59.2944 14.794C60.2484 14.794 60.9504 14.308 61.2384 13.444C61.3824 12.976 61.4364 12.508 61.4364 11.68C61.4364 10.852 61.3824 10.402 61.2384 9.934C60.9504 9.07 60.2484 8.584 59.2944 8.584C58.3404 8.584 57.6384 9.07 57.3504 9.934C57.2064 10.402 57.1524 10.852 57.1524 11.68C57.1524 12.508 57.2064 12.976 57.3504 13.444C57.6384 14.308 58.3404 14.794 59.2944 14.794ZM71.9776 16H70.8256C70.7176 16 70.6456 15.928 70.6456 15.82V15.01H70.6276C70.1776 15.73 69.3856 16.198 68.2696 16.198C66.3796 16.198 65.2816 14.902 65.2816 12.94V7.558C65.2816 7.45 65.3536 7.378 65.4616 7.378H66.6136C66.7216 7.378 66.7936 7.45 66.7936 7.558V12.58C66.7936 13.984 67.4236 14.794 68.7016 14.794C69.8716 14.794 70.6456 13.966 70.6456 12.67V7.558C70.6456 7.45 70.7176 7.378 70.8256 7.378H71.9776C72.0856 7.378 72.1576 7.45 72.1576 7.558V15.82C72.1576 15.928 72.0856 16 71.9776 16ZM74.5888 11.68C74.5888 10.726 74.6968 10.024 74.8588 9.502C75.3448 8.008 76.6048 7.18 78.2608 7.18C79.5748 7.18 80.5828 7.738 81.2128 8.638C81.2668 8.728 81.2668 8.8 81.1588 8.89L80.3668 9.538C80.2768 9.61 80.1868 9.61 80.1148 9.52C79.6108 8.89 79.1248 8.584 78.2608 8.584C77.3248 8.584 76.6228 9.034 76.3348 9.934C76.1908 10.384 76.1368 10.924 76.1368 11.68C76.1368 12.454 76.1908 12.994 76.3348 13.444C76.6228 14.344 77.3248 14.794 78.2608 14.794C79.1248 14.794 79.6108 14.488 80.1148 13.858C80.1868 13.768 80.2768 13.768 80.3668 13.84L81.1588 14.488C81.2668 14.578 81.2668 14.65 81.2128 14.74C80.5828 15.64 79.5748 16.198 78.2608 16.198C76.6048 16.198 75.3448 15.37 74.8588 13.876C74.6968 13.354 74.5888 12.652 74.5888 11.68ZM90.351 16H89.199C89.091 16 89.019 15.928 89.019 15.82V10.78C89.019 9.394 88.389 8.584 87.093 8.584C85.923 8.584 85.113 9.412 85.113 10.69V15.82C85.113 15.928 85.041 16 84.933 16H83.781C83.673 16 83.601 15.928 83.601 15.82V3.94C83.601 3.832 83.673 3.76 83.781 3.76H84.933C85.041 3.76 85.113 3.832 85.113 3.94V8.35H85.131C85.545 7.684 86.373 7.18 87.543 7.18C89.415 7.18 90.531 8.458 90.531 10.42V15.82C90.531 15.928 90.459 16 90.351 16Z" fill="#A7C3D6"/>
</svg>
