<svg width="81" height="22" viewBox="0 0 81 22" fill="none" xmlns="http://www.w3.org/2000/svg">
<path d="M1.248 11.632C1.056 11.008 0.96 10.352 0.96 8.56C0.96 6.768 1.056 6.112 1.248 5.488C1.792 3.808 3.136 2.944 4.976 2.944C6.88 2.944 8.048 3.904 8.592 5.104C8.64 5.2 8.624 5.28 8.544 5.328L7.584 5.792C7.488 5.84 7.408 5.808 7.36 5.712C6.832 4.736 6.128 4.272 4.976 4.272C3.744 4.272 2.96 4.848 2.624 5.888C2.48 6.288 2.4 6.896 2.4 8.56C2.4 10.224 2.48 10.832 2.624 11.232C2.96 12.272 3.744 12.848 4.976 12.848C6.08 12.848 6.976 12.304 7.312 11.28C7.424 10.912 7.52 10.384 7.52 9.568C7.52 9.504 7.488 9.472 7.424 9.472H5.312C5.216 9.472 5.152 9.408 5.152 9.312V8.384C5.152 8.288 5.216 8.224 5.312 8.224H8.784C8.88 8.224 8.944 8.288 8.944 8.384V9.2C8.944 10.176 8.832 11.072 8.672 11.6C8.144 13.248 6.784 14.176 4.976 14.176C3.136 14.176 1.792 13.312 1.248 11.632ZM14.0823 14.176C12.5303 14.176 11.4263 13.424 11.0103 12.096C10.8503 11.6 10.7543 11.04 10.7543 10.16C10.7543 9.28 10.8343 8.688 10.9943 8.224C11.4263 6.896 12.5463 6.16 14.0023 6.16C15.4743 6.16 16.5783 6.912 17.0103 8.224C17.1703 8.72 17.2503 9.248 17.2503 10.416C17.2503 10.512 17.1863 10.576 17.0743 10.576H12.2263C12.1623 10.576 12.1303 10.608 12.1303 10.672C12.1303 11.088 12.1783 11.344 12.2582 11.6C12.5623 12.48 13.2503 12.928 14.1943 12.928C15.1063 12.928 15.7463 12.56 16.1623 12.08C16.2423 12 16.3223 11.984 16.4023 12.048L17.0583 12.64C17.1383 12.704 17.1383 12.784 17.0743 12.864C16.4663 13.632 15.4263 14.176 14.0823 14.176ZM12.2263 9.504H15.7783C15.8423 9.504 15.8743 9.472 15.8743 9.408C15.8743 9.056 15.8423 8.784 15.7623 8.544C15.5063 7.776 14.8663 7.344 14.0023 7.344C13.1383 7.344 12.4983 7.776 12.2423 8.544C12.1623 8.784 12.1303 9.056 12.1303 9.408C12.1303 9.472 12.1623 9.504 12.2263 9.504ZM22.2218 14.08H21.6298C20.1418 14.08 19.5658 13.408 19.5658 11.904V7.52C19.5658 7.456 19.5338 7.424 19.4698 7.424H18.8298C18.7338 7.424 18.6698 7.36 18.6698 7.264V6.496C18.6698 6.4 18.7338 6.336 18.8298 6.336H19.4698C19.5338 6.336 19.5658 6.304 19.5658 6.24V4.08C19.5658 3.984 19.6298 3.92 19.7258 3.92H20.7498C20.8458 3.92 20.9098 3.984 20.9098 4.08V6.24C20.9098 6.304 20.9418 6.336 21.0058 6.336H22.2218C22.3177 6.336 22.3818 6.4 22.3818 6.496V7.264C22.3818 7.36 22.3177 7.424 22.2218 7.424H21.0058C20.9418 7.424 20.9098 7.456 20.9098 7.52V11.856C20.9098 12.624 21.1978 12.832 21.8858 12.832H22.2218C22.3177 12.832 22.3818 12.896 22.3818 12.992V13.92C22.3818 14.016 22.3177 14.08 22.2218 14.08ZM29.528 4.608H28.44C28.344 4.608 28.28 4.544 28.28 4.448V3.28C28.28 3.184 28.344 3.12 28.44 3.12H29.528C29.624 3.12 29.688 3.184 29.688 3.28V4.448C29.688 4.544 29.624 4.608 29.528 4.608ZM29.496 14H28.472C28.376 14 28.312 13.936 28.312 13.84V6.496C28.312 6.4 28.376 6.336 28.472 6.336H29.496C29.592 6.336 29.656 6.4 29.656 6.496V13.84C29.656 13.936 29.592 14 29.496 14ZM38.2808 14H37.2568C37.1608 14 37.0968 13.936 37.0968 13.84V9.36C37.0968 8.128 36.5368 7.408 35.3848 7.408C34.3448 7.408 33.6248 8.144 33.6248 9.28V13.84C33.6248 13.936 33.5608 14 33.4648 14H32.4408C32.3448 14 32.2808 13.936 32.2808 13.84V6.496C32.2808 6.4 32.3448 6.336 32.4408 6.336H33.4648C33.5608 6.336 33.6248 6.4 33.6248 6.496V7.2H33.6408C34.0088 6.608 34.7448 6.16 35.7848 6.16C37.4488 6.16 38.4408 7.296 38.4408 9.04V13.84C38.4408 13.936 38.3768 14 38.2808 14ZM47.6436 14.08H47.0516C45.5636 14.08 44.9876 13.408 44.9876 11.904V7.52C44.9876 7.456 44.9556 7.424 44.8916 7.424H44.2516C44.1556 7.424 44.0916 7.36 44.0916 7.264V6.496C44.0916 6.4 44.1556 6.336 44.2516 6.336H44.8916C44.9556 6.336 44.9876 6.304 44.9876 6.24V4.08C44.9876 3.984 45.0516 3.92 45.1476 3.92H46.1716C46.2676 3.92 46.3316 3.984 46.3316 4.08V6.24C46.3316 6.304 46.3636 6.336 46.4276 6.336H47.6436C47.7396 6.336 47.8036 6.4 47.8036 6.496V7.264C47.8036 7.36 47.7396 7.424 47.6436 7.424H46.4276C46.3636 7.424 46.3316 7.456 46.3316 7.52V11.856C46.3316 12.624 46.6196 12.832 47.3076 12.832H47.6436C47.7396 12.832 47.8036 12.896 47.8036 12.992V13.92C47.8036 14.016 47.7396 14.08 47.6436 14.08ZM52.7061 14.176C51.2181 14.176 50.0981 13.408 49.6821 12.112C49.5061 11.584 49.4261 11.056 49.4261 10.16C49.4261 9.28 49.5061 8.752 49.6821 8.224C50.0981 6.912 51.2181 6.16 52.7061 6.16C54.1941 6.16 55.3141 6.912 55.7301 8.224C55.9061 8.752 55.9861 9.28 55.9861 10.16C55.9861 11.056 55.9061 11.584 55.7301 12.112C55.3141 13.408 54.1941 14.176 52.7061 14.176ZM52.7061 12.928C53.5541 12.928 54.1781 12.496 54.4341 11.728C54.5621 11.312 54.6101 10.896 54.6101 10.16C54.6101 9.424 54.5621 9.024 54.4341 8.608C54.1781 7.84 53.5541 7.408 52.7061 7.408C51.8581 7.408 51.2341 7.84 50.9781 8.608C50.8501 9.024 50.8021 9.424 50.8021 10.16C50.8021 10.896 50.8501 11.312 50.9781 11.728C51.2341 12.496 51.8581 12.928 52.7061 12.928ZM63.9801 14H62.9561C62.8601 14 62.7961 13.936 62.7961 13.84V13.12H62.7801C62.3801 13.76 61.6761 14.176 60.6841 14.176C59.0041 14.176 58.0281 13.024 58.0281 11.28V6.496C58.0281 6.4 58.0921 6.336 58.1881 6.336H59.2121C59.3081 6.336 59.3721 6.4 59.3721 6.496V10.96C59.3721 12.208 59.9321 12.928 61.0681 12.928C62.1081 12.928 62.7961 12.192 62.7961 11.04V6.496C62.7961 6.4 62.8601 6.336 62.9561 6.336H63.9801C64.0761 6.336 64.1401 6.4 64.1401 6.496V13.84C64.1401 13.936 64.0761 14 63.9801 14ZM66.3011 10.16C66.3011 9.312 66.3971 8.688 66.5411 8.224C66.9731 6.896 68.0931 6.16 69.5651 6.16C70.7331 6.16 71.6291 6.656 72.1891 7.456C72.2371 7.536 72.2371 7.6 72.1411 7.68L71.4371 8.256C71.3571 8.32 71.2771 8.32 71.2131 8.24C70.7651 7.68 70.3331 7.408 69.5651 7.408C68.7331 7.408 68.1091 7.808 67.8531 8.608C67.7251 9.008 67.6771 9.488 67.6771 10.16C67.6771 10.848 67.7251 11.328 67.8531 11.728C68.1091 12.528 68.7331 12.928 69.5651 12.928C70.3331 12.928 70.7651 12.656 71.2131 12.096C71.2771 12.016 71.3571 12.016 71.4371 12.08L72.1411 12.656C72.2371 12.736 72.2371 12.8 72.1891 12.88C71.6291 13.68 70.7331 14.176 69.5651 14.176C68.0931 14.176 66.9731 13.44 66.5411 12.112C66.3971 11.648 66.3011 11.024 66.3011 10.16ZM80.312 14H79.288C79.192 14 79.128 13.936 79.128 13.84V9.36C79.128 8.128 78.568 7.408 77.416 7.408C76.376 7.408 75.656 8.144 75.656 9.28V13.84C75.656 13.936 75.592 14 75.496 14H74.472C74.376 14 74.312 13.936 74.312 13.84V3.28C74.312 3.184 74.376 3.12 74.472 3.12H75.496C75.592 3.12 75.656 3.184 75.656 3.28V7.2H75.672C76.04 6.608 76.776 6.16 77.816 6.16C79.48 6.16 80.472 7.296 80.472 9.04V13.84C80.472 13.936 80.408 14 80.312 14Z" fill="#A7C3D6"/>
</svg>
