<svg width="85" height="82" viewBox="0 0 85 82" fill="none" xmlns="http://www.w3.org/2000/svg">
<path d="M0 65.2253V75.2311C0 79.2937 2.62647 81.8835 6.45059 81.8835C10.4736 81.8835 12.936 79.153 12.936 74.9568V65.2253H9.53095V74.774C9.53095 77.0616 8.43872 78.4807 6.48714 78.4807C4.34856 78.4807 3.40507 76.8492 3.40507 74.9568V65.2253H0ZM14.5918 65.3633V81.7203H20.0156C23.0195 81.7203 25.572 80.105 25.572 76.9003C25.572 73.6956 22.7968 72.8135 22.7968 72.8135C22.7968 72.8135 24.8521 72.2111 24.8521 69.3497C24.8521 66.4884 22.2545 65.3633 20.0165 65.3633H14.5927H14.5918ZM18.0224 68.4703H19.6688C20.8112 68.4703 21.5422 69.105 21.5422 70.2094C21.5422 71.1973 20.9217 71.9431 19.7555 71.9431H18.0224V68.4703ZM18.0224 74.5015H19.8422C21.5532 74.5015 22.1465 75.4284 22.1465 76.5345C22.1465 77.8218 21.379 78.5766 20.0156 78.5766H18.0232V74.5015H18.0224ZM26.8597 65.3624H30.2818V81.7194H26.8589V65.3624H26.8597ZM64.2041 81.7194H60.7812V65.3624H71.5251V68.7437H64.2033V72.4899H70.8748V75.2311H64.2033V81.7194H64.2041ZM72.7822 65.3624V68.7437H77.2013V81.7194H80.6676V68.7437H85V65.3624H72.7831H72.7822ZM34.1901 76.2799L31.4709 78.3767C31.4709 78.3767 32.4102 82 37.12 82C40.2564 82 42.5642 80.07 42.5642 76.6762C42.5642 71.2071 35.3129 72.3671 35.3129 69.555C35.3129 68.8146 35.9368 68.1611 37.0885 68.1611C38.9364 68.1611 39.6394 70.0731 39.6394 70.0731L42.3593 68.0598C42.3593 68.0598 41.2968 65.0738 37.2254 65.0738C33.8798 65.0738 32.1016 67.3382 32.1016 69.6742C32.1016 75.2473 39.1421 74.038 39.1421 76.963C39.1421 77.95 38.4043 78.6752 37.256 78.6671C34.9805 78.6671 34.1892 76.2808 34.1892 76.2808L34.1901 76.2799ZM51.4024 65.0666C47.3717 65.0666 45.5757 67.374 45.5757 67.374L46.0959 67.9226C46.0959 67.9226 43.4881 69.8759 43.4881 74.0703C43.4881 78.8966 47.0181 81.9973 51.4219 81.9973C56.5389 81.9973 59.4416 78.0154 59.4416 73.5396C59.4416 68.7662 56.1266 65.0675 51.4024 65.0675V65.0666ZM51.4755 68.4614C54.2082 68.4614 55.9813 70.6639 55.9813 73.5244C55.9813 76.3848 54.2295 78.6187 51.4755 78.6187C48.7215 78.6187 46.9671 76.6152 46.9671 73.9555C46.9671 71.5352 48.5209 70.4801 48.5209 70.4801L47.9574 69.8858C47.9574 69.8858 49.1559 68.4605 51.4746 68.4605L51.4755 68.4614ZM40.9288 0.00089642C23.351 0.00089642 15.7639 16.5013 15.7639 16.5013L17.9969 18.1875C17.9969 18.1875 15.1859 23.8242 15.2641 31.0538C15.2641 45.8124 26.4041 59.715 42.803 59.715C57.7008 59.715 70.007 46.9267 70.007 31.0896C70.007 10.4343 54.8194 0 40.9288 0V0.00089642ZM41.0809 5.03609C54.8143 5.03609 65.4715 16.7075 65.4715 30.2757C65.4715 44.6587 55.2137 54.6619 43.2603 54.6619C34.4629 54.6619 26.5274 47.5963 26.5274 37.9096C26.5274 32.315 29.3468 28.4138 32.5071 26.335L32.9695 26.8639C32.105 27.5775 29.6392 31.7548 29.6392 35.8604C29.6392 43.4817 35.3061 48.7608 42.4469 48.7608C51.5426 48.7608 57.6082 40.5791 57.6082 31.0798C57.6082 20.0269 48.3577 10.6441 37.2245 10.6441C31.0672 10.6441 25.8406 13.4364 22.8376 15.9025L22.3701 15.4561C26.2987 9.06729 33.1021 5.03609 41.0809 5.03609ZM36.9831 15.6094C44.0874 15.6094 51.0233 20.5657 52.7547 27.6017L52.1249 27.8536C49.0165 23.5247 43.9225 19.9364 37.9079 19.9364C26.8402 19.9364 21.0271 30.5428 21.8805 39.4021L21.2285 39.654C21.2285 39.654 20.0063 36.8097 20.0063 33.4365C20.0063 23.6682 27.6128 15.6103 36.9831 15.6103V15.6094ZM41.6785 27.8688C45.0419 27.8688 47.7321 30.7436 47.7321 34.1572C47.7321 36.9818 46.0126 38.6554 46.0126 38.6554L48.0492 40.1569C48.0492 40.1569 46.0296 43.5006 41.9071 43.5006C37.7847 43.5006 34.4765 40.1444 34.4765 35.63C34.4765 31.1156 38.27 27.8688 41.6785 27.8688Z" fill="#F6F2F2"/>
</svg>
