<svg width="65" height="59" viewBox="0 0 65 59" fill="none" xmlns="http://www.w3.org/2000/svg">
<path d="M0.472382 46.8358V54.0206C0.472382 56.9378 2.46595 58.7974 5.36857 58.7974C8.42216 58.7974 10.2912 56.8367 10.2912 53.8236V46.8358H7.70666V53.6923C7.70666 55.335 6.87762 56.354 5.39631 56.354C3.77307 56.354 3.05693 55.1825 3.05693 53.8236V46.8358H0.472382ZM11.548 46.9349V58.6802H15.6648C17.9449 58.6802 19.8823 57.5203 19.8823 55.2191C19.8823 52.918 17.7758 52.2846 17.7758 52.2846C17.7758 52.2846 19.3358 51.852 19.3358 49.7974C19.3358 47.7428 17.3642 46.9349 15.6655 46.9349H11.5486H11.548ZM14.1519 49.1659H15.4016C16.2687 49.1659 16.8236 49.6217 16.8236 50.4147C16.8236 51.124 16.3526 51.6596 15.4674 51.6596H14.1519V49.1659ZM14.1519 53.4967H15.5332C16.8319 53.4967 17.2823 54.1622 17.2823 54.9565C17.2823 55.8809 16.6997 56.4228 15.6648 56.4228H14.1526V53.4967H14.1519ZM20.8597 46.9343H23.4572V58.6796H20.8591V46.9343H20.8597ZM49.2052 58.6796H46.6072V46.9343H54.7621V49.3623H49.2046V52.0522H54.2685V54.0206H49.2046V58.6796H49.2052ZM55.7163 46.9343V49.3623H59.0705V58.6796H61.7015V49.3623H64.99V46.9343H55.7169H55.7163ZM26.4237 54.7737L24.3598 56.2793C24.3598 56.2793 25.0727 58.8811 28.6476 58.8811C31.0282 58.8811 32.7799 57.4952 32.7799 55.0582C32.7799 51.1311 27.2759 51.964 27.2759 49.9448C27.2759 49.4131 27.7495 48.9439 28.6237 48.9439C30.0263 48.9439 30.5599 50.3168 30.5599 50.3168L32.6244 48.8711C32.6244 48.8711 31.8179 46.727 28.7276 46.727C26.1882 46.727 24.8385 48.353 24.8385 50.0304C24.8385 54.0322 30.1824 53.1639 30.1824 55.2642C30.1824 55.9729 29.6224 56.4936 28.7508 56.4879C27.0237 56.4879 26.423 54.7744 26.423 54.7744L26.4237 54.7737ZM39.4884 46.7219C36.429 46.7219 35.0657 48.3787 35.0657 48.3787L35.4606 48.7726C35.4606 48.7726 33.4812 50.1752 33.4812 53.187C33.4812 56.6526 36.1606 58.8791 39.5032 58.8791C43.3871 58.8791 45.5904 56.0199 45.5904 52.806C45.5904 49.3784 43.0742 46.7225 39.4884 46.7225V46.7219ZM39.5438 49.1595C41.6181 49.1595 42.9639 50.741 42.9639 52.795C42.9639 54.849 41.6342 56.4531 39.5438 56.4531C37.4535 56.4531 36.1219 55.0145 36.1219 53.1046C36.1219 51.3667 37.3012 50.6091 37.3012 50.6091L36.8735 50.1823C36.8735 50.1823 37.7832 49.1589 39.5432 49.1589L39.5438 49.1595ZM31.5386 0.000643685C18.1965 0.000643685 12.4377 11.849 12.4377 11.849L14.1326 13.0597C14.1326 13.0597 11.999 17.1072 12.0583 22.2985C12.0583 32.8962 20.5139 42.8791 32.9612 42.8791C44.2691 42.8791 53.6098 33.6963 53.6098 22.3243C53.6098 7.49249 42.0819 0 31.5386 0V0.000643685ZM31.6541 3.61622C42.0781 3.61622 50.1672 11.997 50.1672 21.7398C50.1672 32.0677 42.3813 39.2506 33.3083 39.2506C26.6308 39.2506 20.6075 34.1771 20.6075 27.2214C20.6075 23.2042 22.7475 20.4029 25.1462 18.9102L25.4972 19.2899C24.8411 19.8023 22.9694 22.8019 22.9694 25.75C22.9694 31.2226 27.2708 35.0132 32.6908 35.0132C39.5948 35.0132 44.1987 29.1383 44.1987 22.3172C44.1987 14.3806 37.1774 7.64311 28.7269 7.64311C24.0533 7.64311 20.0862 9.64819 17.8068 11.419L17.4519 11.0984C20.4339 6.51087 25.5979 3.61622 31.6541 3.61622ZM28.5437 11.2085C33.936 11.2085 39.2006 14.7674 40.5148 19.8197L40.0367 20.0006C37.6774 16.8922 33.8109 14.3156 29.2456 14.3156C20.8449 14.3156 16.4326 21.9316 17.0803 28.2932L16.5855 28.474C16.5855 28.474 15.6577 26.4316 15.6577 24.0094C15.6577 16.9952 21.4314 11.2091 28.5437 11.2091V11.2085ZM32.1076 20.0115C34.6605 20.0115 36.7025 22.0758 36.7025 24.527C36.7025 26.5552 35.3973 27.757 35.3973 27.757L36.9432 28.8352C36.9432 28.8352 35.4102 31.2361 32.2812 31.2361C29.1521 31.2361 26.6411 28.8261 26.6411 25.5845C26.6411 22.3429 29.5205 20.0115 32.1076 20.0115Z" fill="#F6F2F2"/>
</svg>
