<svg width="89" height="82" viewBox="0 0 89 82" fill="none" xmlns="http://www.w3.org/2000/svg">
<path d="M0.00012207 65.2253V75.2311C0.00012207 79.2937 2.75019 81.8835 6.75426 81.8835C10.9666 81.8835 13.5449 79.153 13.5449 74.9568V65.2253H9.97959V74.774C9.97959 77.0616 8.83595 78.4807 6.79253 78.4807C4.55332 78.4807 3.56543 76.8492 3.56543 74.9568V65.2253H0.00012207ZM15.2786 65.3633V81.7203H20.9576C24.1029 81.7203 26.7755 80.105 26.7755 76.9003C26.7755 73.6956 23.8697 72.8135 23.8697 72.8135C23.8697 72.8135 26.0217 72.2111 26.0217 69.3497C26.0217 66.4884 23.3019 65.3633 20.9585 65.3633H15.2795H15.2786ZM18.8706 68.4703H20.5945C21.7907 68.4703 22.5561 69.105 22.5561 70.2094C22.5561 71.1972 21.9064 71.9431 20.6853 71.9431H18.8706V68.4703ZM18.8706 74.5015H20.7761C22.5676 74.5015 23.1888 75.4284 23.1888 76.5345C23.1888 77.8218 22.3852 78.5766 20.9576 78.5766H18.8715V74.5015H18.8706ZM28.1238 65.3625H31.7069V81.7194H28.1229V65.3625H28.1238ZM67.2256 81.7194H63.6416V65.3625H74.8911V68.7437H67.2247V72.4899H74.2102V75.2311H67.2247V81.7194H67.2256ZM76.2074 65.3625V68.7437H80.8345V81.7194H84.4638V68.7437H89.0001V65.3625H76.2083H76.2074ZM35.7991 76.2799L32.952 78.3767C32.952 78.3767 33.9355 82 38.8669 82C42.151 82 44.5673 80.07 44.5673 76.6762C44.5673 71.2071 36.9748 72.3671 36.9748 69.555C36.9748 68.8146 37.6281 68.1611 38.834 68.1611C40.7688 68.1611 41.5049 70.0731 41.5049 70.0731L44.3528 68.0598C44.3528 68.0598 43.2403 65.0738 38.9773 65.0738C35.4743 65.0738 33.6124 67.3382 33.6124 69.6742C33.6124 75.2473 40.9842 74.038 40.9842 76.963C40.9842 77.95 40.2117 78.6752 39.0093 78.6671C36.6268 78.6671 35.7982 76.2808 35.7982 76.2808L35.7991 76.2799ZM53.8214 65.0666C49.6011 65.0666 47.7206 67.374 47.7206 67.374L48.2652 67.9226C48.2652 67.9226 45.5347 69.8759 45.5347 74.0703C45.5347 78.8966 49.2309 81.9973 53.8419 81.9973C59.1997 81.9973 62.239 78.0154 62.239 73.5396C62.239 68.7662 58.768 65.0675 53.8214 65.0675V65.0666ZM53.898 68.4614C56.7593 68.4614 58.6158 70.6639 58.6158 73.5244C58.6158 76.3848 56.7816 78.6187 53.898 78.6187C51.0144 78.6187 49.1775 76.6152 49.1775 73.9555C49.1775 71.5352 50.8044 70.4801 50.8044 70.4801L50.2143 69.8858C50.2143 69.8858 51.4692 68.4605 53.8971 68.4605L53.898 68.4614ZM42.855 0.00089642C24.45 0.00089642 16.5059 16.5013 16.5059 16.5013L18.8439 18.1875C18.8439 18.1875 15.9007 23.8242 15.9826 31.0538C15.9826 45.8124 27.6468 59.715 44.8174 59.715C60.4163 59.715 73.3016 46.9267 73.3016 31.0896C73.3016 10.4343 57.3992 0 42.855 0V0.00089642ZM43.0143 5.03609C57.3939 5.03609 68.5526 16.7075 68.5526 30.2757C68.5526 44.6587 57.8122 54.6619 45.2962 54.6619C36.0848 54.6619 27.7759 47.5963 27.7759 37.9096C27.7759 32.315 30.728 28.4138 34.0369 26.335L34.5211 26.8639C33.616 27.5775 31.0341 31.7548 31.0341 35.8604C31.0341 43.4817 36.9677 48.7608 44.4445 48.7608C53.9683 48.7608 60.3193 40.5791 60.3193 31.0798C60.3193 20.0269 50.6335 10.6441 38.9764 10.6441C32.5293 10.6441 27.0567 13.4364 23.9124 15.9025L23.4229 15.4561C27.5364 9.06729 34.6599 5.03609 43.0143 5.03609ZM38.7236 15.6094C46.1622 15.6094 53.4245 20.5657 55.2374 27.6017L54.5779 27.8536C51.3232 23.5247 45.9895 19.9364 39.6919 19.9364C28.1034 19.9364 22.0167 30.5428 22.9103 39.4021L22.2276 39.654C22.2276 39.654 20.9478 36.8097 20.9478 33.4365C20.9478 23.6682 28.9124 15.6103 38.7236 15.6103V15.6094ZM43.6399 27.8688C47.1616 27.8688 49.9785 30.7436 49.9785 34.1572C49.9785 36.9818 48.178 38.6554 48.178 38.6554L50.3104 40.1569C50.3104 40.1569 48.1958 43.5006 43.8794 43.5006C39.5629 43.5006 36.099 40.1444 36.099 35.63C36.099 31.1156 40.0711 27.8688 43.6399 27.8688Z" fill="#F6F2F2"/>
</svg>
